HIERARCHY
ROOT Hips
{
     OFFSET 1.88212 96.90440 -13.34250
     CHANNELS 6 Xposition Yposition Zposition Zrotation Xrotation Yrotation
     JOINT Spine
     {
          OFFSET 0.00000 11.89050 0.00000
          CHANNELS 3 Zrotation Xrotation Yrotation
          JOINT Spine1
          {
               OFFSET -0.00000 25.65740 0.12766
               CHANNELS 3 Zrotation Xrotation Yrotation
               JOINT HEad
               {
                    OFFSET 0.00000 8.73416 0.01134
                    CHANNELS 3 Zrotation Xrotation Yrotation
                    End Site
                    {
                         OFFSET -0.29000 12.77420 2.51395
                    }
               }
               JOINT LeftShoulder1
               {
                    OFFSET 8.99000 -0.36225 -0.22000
                    CHANNELS 3 Zrotation Xrotation Yrotation
                    JOINT LeftArm
                    {
                         OFFSET 10.28270 -0.00338 0.32212
                         CHANNELS 3 Zrotation Xrotation Yrotation
                         JOINT LeftForeArm
                         {
                              OFFSET 32.76690 0.09914 -1.42434
                              CHANNELS 3 Zrotation Xrotation Yrotation
                              JOINT LeftHand
                              {
                                   OFFSET 27.56430 0.08536 1.02216
                                   CHANNELS 3 Zrotation Xrotation Yrotation
                                   End Site
                                   {
                                        OFFSET 16.74430 -0.60000 1.50291
                                   }
                              }
                         }
                    }
               }
               JOINT RightShoulder
               {
                    OFFSET -8.99000 -0.36225 -0.22000
                    CHANNELS 3 Zrotation Xrotation Yrotation
                    JOINT RightArm
                    {
                         OFFSET -10.28270 -0.00338 0.32212
                         CHANNELS 3 Zrotation Xrotation Yrotation
                         JOINT RightForeArm
                         {
                              OFFSET -32.89710 0.09914 -1.42434
                              CHANNELS 3 Zrotation Xrotation Yrotation
                              JOINT RightHand
                              {
                                   OFFSET -27.49210 0.08536 1.02216
                                   CHANNELS 3 Zrotation Xrotation Yrotation
                                   End Site
                                   {
                                        OFFSET -16.63120 -0.60000 1.50291
                                   }
                              }
                         }
                    }
               }
          }
     }
     JOINT LeftUpLeg
     {
          OFFSET 8.94580 -8.66707 0.10165
          CHANNELS 3 Zrotation Xrotation Yrotation
          JOINT LeftLeg
          {
               OFFSET 0.00000 -44.42270 1.37270
               CHANNELS 3 Zrotation Xrotation Yrotation
               JOINT LeftFoot
               {
                    OFFSET -0.25355 -42.09240 -1.46059
                    CHANNELS 3 Zrotation Xrotation Yrotation
                    JOINT LeftToes
                    {
                         OFFSET -0.04000 -4.41509 8.49910
                         CHANNELS 3 Zrotation Xrotation Yrotation
                         End Site
                         {
                              OFFSET 0.08000 -0.04745 9.77979
                         }
                    }
               }
          }
     }
     JOINT RightUpLeg
     {
          OFFSET -8.94580 -8.66707 0.10165
          CHANNELS 3 Zrotation Xrotation Yrotation
          JOINT RightLeg
          {
               OFFSET 0.00000 -44.42270 1.37270
               CHANNELS 3 Zrotation Xrotation Yrotation
               JOINT RightFoot
               {
                    OFFSET 0.25355 -42.09240 -1.46059
                    CHANNELS 3 Zrotation Xrotation Yrotation
                    JOINT RightToes
                    {
                         OFFSET 0.04000 -4.41509 8.49910
                         CHANNELS 3 Zrotation Xrotation Yrotation
                         End Site
                         {
                              OFFSET -0.08000 -0.13745 9.77979
                         }
                    }
               }
          }
     }
}
MOTION
Frames: 17
Frame Time: 0.01667
74.04082 89.29013 -98.54588 2.73694 -4.79357 -8.69798 4.76753 15.14723 9.62990 0.00986 -0.00364 -0.01220 -36.28867 11.56158 31.77362 10.65175 -2.75952 0.37924 25.00878 -79.32840 44.97292 -42.05170 47.92842 -101.77230 4.98984 7.79240 6.64110 31.50513 0.02978 7.57672 37.52613 -11.28974 59.20643 20.88748 34.11464 106.98798 -5.62565 15.09593 -1.45175 23.72489 -27.03650 16.85572 -1.97680 26.94862 2.44895 15.64868 0.03512 -0.02831 -36.74622 -5.64359 -8.54536 -23.84810 0.37683 -1.70248 -10.17620 36.74620 31.64872 11.34924 -0.09030 0.03168 -16.99682 -51.64069 -28.32426 
72.11790 88.79592 -100.42783 2.82993 -4.07539 -7.83067 4.51251 14.84186 9.95876 0.00811 -0.00163 -0.01335 -36.82789 9.84109 31.92576 10.31196 -2.20490 -0.42712 28.23214 -79.65944 49.20995 -42.10934 48.24461 -102.15833 6.23375 7.97051 1.96333 30.80380 0.22072 6.57039 39.39656 -10.97273 61.01146 20.89642 34.48244 106.41930 -5.60617 14.65417 -1.69831 24.70996 -28.16603 16.14110 -1.61119 26.00461 -1.35796 16.51634 0.03754 -0.01163 -37.19759 -5.57121 -5.31202 -23.57993 5.04151 2.40398 -4.51509 28.76704 22.08400 11.49511 -0.09311 -0.02863 -9.90712 -42.47553 -27.60209 
70.23563 88.34023 -102.17374 2.80747 -3.56036 -7.07693 4.44814 14.66684 10.13722 0.00620 -0.00126 -0.01430 -37.21849 8.43068 32.19834 9.84830 -1.56595 -1.17073 31.74537 -80.10373 53.82322 -42.38779 48.76516 -102.29928 5.49415 7.39656 4.24884 30.24379 0.55495 5.59061 40.99322 -10.64514 62.66373 20.88968 34.88539 105.85387 -5.74113 14.32456 -1.89013 25.14484 -29.04154 15.22631 -0.16146 25.07102 -7.06481 16.40237 0.00514 0.00819 -24.21794 3.95950 -7.50635 -23.46141 9.12525 6.24125 0.35012 22.73874 12.78870 8.09539 -0.16805 0.06994 -9.60249 -44.18093 -22.38282 
68.43921 87.90595 -103.74183 2.69021 -3.24953 -6.40850 4.54898 14.60657 10.14749 0.00498 -0.00036 -0.01493 -37.50119 7.36759 32.63253 9.39739 -0.87244 -1.87801 35.59317 -80.62036 58.87475 -42.87987 49.41232 -102.27913 6.18568 7.51156 1.11284 29.65343 0.96572 4.63783 42.52892 -10.26059 64.14389 20.88659 35.25989 105.26667 -5.93526 13.95111 -2.02643 25.13563 -29.60166 14.13693 0.96621 23.71165 -11.68873 16.50854 0.01071 -0.01196 -33.67815 -0.55283 0.69960 -23.48843 12.58478 9.80919 4.90807 17.76304 4.52030 7.61347 -0.13225 0.00794 -8.33089 -41.75453 -18.60538 
66.77634 87.51231 -105.11111 2.49319 -3.13664 -5.79844 4.81326 14.61647 9.98543 0.00446 -0.00092 -0.01397 -37.05404 7.98271 33.70976 9.05114 -0.29128 -2.42726 38.45990 -81.20963 62.95179 -43.56277 50.09509 -101.93502 5.67415 7.44507 2.15090 29.22141 1.32663 3.85252 43.82587 -9.79715 65.24515 20.88028 35.57109 104.67302 -6.20888 13.64767 -1.96009 24.81915 -29.79944 12.93736 1.99103 22.21118 -15.36854 16.60403 0.00994 -0.01220 -33.58220 2.15083 3.78877 -23.64358 15.44769 13.08594 9.06971 13.42647 -2.17687 4.64098 -0.18146 0.04112 -7.39973 -42.49150 -14.12193 
65.23377 87.27267 -106.37146 2.23462 -3.18827 -5.25050 5.18407 14.66478 9.68865 0.00151 -0.00012 -0.01279 -35.72622 10.01253 35.08453 8.59731 0.33330 -2.82531 40.53743 -81.99168 65.96148 -44.29966 50.70755 -101.41750 5.92318 7.62804 0.16497 28.74757 1.78507 3.19818 45.09484 -9.32555 66.11434 20.84980 35.81368 104.06764 -6.23995 13.23941 -2.09307 24.37560 -29.64080 11.72779 2.89216 20.73963 -18.09271 16.70007 0.00872 -0.01106 -36.54443 1.34150 8.91442 -23.26430 16.93339 15.35267 12.12801 10.68312 -6.53650 4.06696 -0.13976 0.02239 -8.47258 -42.29579 -11.60659 
63.83206 87.17491 -107.50439 1.92238 -3.36295 -4.79130 5.61491 14.72164 9.31986 -0.00083 0.00060 -0.01091 -33.83245 13.46171 36.45935 8.05750 0.93384 -3.05415 41.07658 -82.94645 67.13776 -44.98321 51.19402 -100.72624 5.58014 7.82631 0.78352 28.28035 2.28507 2.74944 46.22568 -8.90283 66.68613 20.79394 35.98823 103.43262 -6.16940 13.01422 -2.13609 24.02131 -29.28593 10.67737 3.16579 20.61994 -18.25248 17.62349 0.00065 -0.01541 -36.99190 1.21585 10.38652 -22.38102 17.34213 16.61838 13.95441 9.52534 -8.64848 1.86349 -0.13437 0.03045 -8.35139 -42.67318 -10.24729 
62.57983 87.25013 -108.50609 1.57068 -3.62155 -4.44146 6.06418 14.77623 8.92348 -0.00248 0.00136 -0.00972 -32.20449 16.73645 37.71292 7.47246 1.51060 -3.18241 40.30851 -83.94897 66.75821 -45.50467 51.49672 -100.06950 5.70685 8.32841 -0.43732 27.75655 2.78666 2.40949 47.23269 -8.47656 67.11739 20.70901 36.08276 102.76441 -5.88360 12.84081 -2.15632 23.85383 -28.88492 9.89681 2.99392 21.24241 -16.33807 18.97993 -0.01576 -0.00009 -38.77822 5.61407 25.92546 -21.05189 16.92760 16.92076 14.52722 9.92798 -8.79588 3.30057 -0.14997 0.02032 -10.81874 -41.96101 -10.50273 
61.48167 87.49439 -109.35938 1.19233 -3.92804 -4.20708 6.50271 14.81494 8.53398 -0.00347 0.00173 -0.00832 -30.86743 19.84018 38.84816 6.85546 2.03090 -3.18349 38.03682 -84.94541 64.66814 -45.89050 51.64818 -99.43587 5.52874 8.69722 -0.01391 27.10580 3.27202 2.21413 48.13876 -8.07511 67.41633 20.59079 36.10916 102.10199 -5.60644 12.63009 -2.08211 23.89681 -28.53899 9.42951 2.39826 22.36346 -12.84077 20.61308 -0.03751 0.01914 -37.99826 4.82674 15.69629 -19.42199 15.96477 16.35491 14.05587 9.74845 -8.02268 3.55675 -0.12958 0.01227 -10.96920 -39.56493 -10.41506 
60.53325 87.86712 -110.05521 0.79508 -4.25536 -4.08110 6.91889 14.82191 8.16586 -0.00366 0.00163 -0.00719 -29.82762 22.72806 39.88917 6.25229 2.45816 -3.08002 34.14989 -85.81891 60.83475 -46.13713 51.68206 -98.95876 5.59139 9.25556 -0.81751 26.34780 3.66934 2.04891 48.93201 -7.61052 67.65873 20.47756 36.09628 101.46651 -5.28774 12.48035 -1.92299 24.16112 -28.28265 9.28363 1.29362 23.82352 -8.16391 22.51706 -0.05845 0.04004 -38.30615 5.44154 14.43050 -17.60272 14.46111 14.97593 13.17939 13.54159 -6.22355 3.86156 -0.03586 -0.00515 -10.98898 -40.41769 -10.91665 
59.72382 88.31475 -110.58575 0.39076 -4.54724 -4.03049 7.30527 14.74972 7.81968 -0.00361 0.00202 -0.00552 -29.07442 25.37566 40.84428 5.65388 2.84559 -2.84306 -26.57356 -90.00000 0.00000 -46.33440 51.66220 -98.54424 5.47329 9.57261 -0.49465 25.47281 4.07579 2.05726 49.61157 -7.31406 67.84422 20.40547 36.05088 100.85088 -5.00397 12.32212 -1.82964 24.51625 -28.02384 9.36230 0.70336 24.16898 -4.49250 23.51331 -0.01584 0.01694 -38.50901 5.89864 8.28177 -16.17750 13.18335 13.74414 12.21561 16.73066 -4.65520 4.96870 -0.04423 0.00350 -11.10568 -40.79404 -9.99608 
59.04018 88.79782 -110.98390 -0.01255 -4.78462 -4.02787 7.64541 14.59399 7.49564 -0.00419 0.00295 -0.00390 -28.57784 27.73837 41.71996 5.02390 3.22358 -2.51284 -26.36280 -90.00000 0.00000 -46.48452 51.60844 -98.19967 5.48131 10.08682 -0.91538 24.51323 4.49905 2.17620 50.17069 -7.16864 68.05058 20.38695 35.97743 100.25200 -4.73425 12.18617 -1.65706 24.81994 -27.64212 9.55714 0.47759 23.81744 -1.75970 23.87875 0.00436 0.00294 -39.20666 7.05961 5.52289 -15.09973 12.18093 12.61158 11.06669 17.56457 -3.09699 13.76211 -0.18706 -0.03349 -4.94314 -28.77506 7.78572 
58.45417 89.27007 -111.28214 -0.40941 -4.95329 -4.05076 7.92571 14.34195 7.19714 -0.00476 0.00300 -0.00235 -28.30937 29.81815 42.52132 4.35619 3.51170 -2.10095 -26.01669 -90.00000 0.00000 -46.60934 51.57235 -97.89552 5.41392 10.23574 -0.69107 23.64232 4.86950 2.44679 50.44798 -7.20345 68.18871 20.42378 35.86753 99.66596 -4.53124 12.10754 -1.56581 24.99071 -27.07589 9.78337 0.45496 23.01919 0.16286 23.77178 0.01462 -0.00169 -39.45322 8.55059 2.19221 -14.29388 11.36821 11.52422 10.07282 18.97548 -1.62427 11.01820 -0.01571 -0.01537 -7.43785 -34.41666 0.89982 
57.93540 89.74893 -111.51114 -0.78819 -5.04281 -4.08980 8.13492 14.00793 6.93037 -0.00453 0.00416 -0.00110 -28.23231 31.57286 43.24217 3.76590 3.81047 -1.66558 -25.68119 -90.00000 0.00000 -46.75418 51.55835 -97.58294 5.44571 10.49311 -0.80637 22.51473 5.23690 2.73651 50.85958 -7.31866 68.42713 20.53529 35.72864 99.06689 -4.42315 11.85374 -1.39539 25.00100 -26.31985 10.00812 0.53423 21.93424 1.42567 23.28342 0.01878 -0.00259 -38.27178 10.40273 0.35506 -13.69298 10.63556 10.44612 9.24512 20.59023 -0.18585 14.26716 -0.02759 0.01637 0.10131 -19.88628 20.48446 
57.48188 90.18878 -111.66756 -1.14410 -5.05879 -4.13679 8.26520 13.60867 6.68927 -0.00464 0.00481 -0.00084 -28.33288 32.99009 43.90147 3.21880 4.08872 -1.28923 -25.31449 -90.00000 0.00000 -46.88069 51.56595 -97.26109 5.35704 10.54651 -0.65054 21.58690 5.58701 3.06021 51.00282 -7.56169 68.73927 20.70987 35.56644 98.46728 -4.37957 11.87354 -1.20270 24.85872 -25.40284 10.23611 0.70859 20.66254 2.22175 22.42700 0.01993 -0.00318 -37.75155 10.68622 -1.03804 -13.28162 9.91920 9.36753 8.55024 22.29213 1.26781 14.84251 -0.02317 0.00568 -3.51370 -26.85832 12.94444 
57.07964 90.60700 -111.75269 -1.46615 -5.01138 -4.19318 8.31043 13.16990 6.47353 -0.00458 0.00543 -0.00070 -29.60353 33.10378 44.16132 2.73343 4.35918 -0.96006 -24.96507 -90.00000 0.00000 -47.03743 51.60883 -96.88940 5.38379 10.54444 -0.67833 20.79424 5.92244 3.37284 51.02011 -7.87047 69.17071 20.92946 35.37610 97.86201 -4.49222 11.65012 -0.97726 24.59336 -24.36926 10.47480 0.95357 19.27030 2.65342 21.22567 0.01932 -0.00270 -35.84045 11.12573 -1.75739 -13.03792 9.17115 8.29214 8.06718 23.98855 2.77454 16.71384 -0.02329 0.01881 3.14446 -6.68932 21.87552 
56.71621 91.00727 -111.77936 -1.74758 -4.91925 -4.25916 8.26731 12.70986 6.28174 -0.00437 0.00534 -0.00070 -30.79499 33.00400 44.39006 2.31880 4.59423 -0.65374 -24.63799 -90.00000 0.00000 -47.24744 51.67581 -96.43951 5.31106 10.50418 -0.54969 20.18288 6.23145 3.70908 50.91067 -8.24469 69.67198 21.15699 35.16230 97.27769 -4.60008 11.63090 -0.75171 24.23049 -23.26810 10.74309 1.28659 17.80801 2.75067 19.68315 0.01725 -0.00147 -33.72185 11.41364 -2.43114 -12.96511 8.36607 7.22912 7.72703 25.67391 4.36394 17.75783 -0.02399 0.01361 -0.07438 -11.46863 16.51815 
